<?xml version="1.0" encoding="utf-8"?>
<!-- Svg Vector Icons : http://www.onlinewebfonts.com/icon -->
<!DOCTYPE svg PUBLIC "-//W3C//DTD SVG 1.1//EN" "http://www.w3.org/Graphics/SVG/1.1/DTD/svg11.dtd">
<svg version="1.1" xmlns="http://www.w3.org/2000/svg" xmlns:xlink="http://www.w3.org/1999/xlink" x="0px" y="0px" viewBox="0 0 1000 1000" enable-background="new 0 0 1000 1000" xml:space="preserve">
<metadata> Svg Vector Icons : http://www.onlinewebfonts.com/icon </metadata>
<g><g transform="translate(0.000000,511.000000) scale(0.100000,-0.100000)"><path d="M4610.2,5002.1c-895.3-93.7-1644.4-356.3-2322.7-810.8C-58.1,2619.9-606.2-570.7,1077-2829.5c189.6-253.5,593.8-676,838.2-872.5c687.5-555,1500.5-911.3,2398.1-1048.3c344.9-52.5,1030-52.5,1374.9,0c1096.3,169,2014.4,628.1,2781.8,1395.5C9237.4-2587.4,9712.4-1630.4,9863.2-557c47.9,347.2,50.3,1002.7,0,1336.1c-310.6,2144.6-1941.3,3816.4-4063.1,4170.4C5532.9,4992.9,4827.2,5024.9,4610.2,5002.1z M5601.4,4248.4C6996.9,4045.1,8168.5,3179.5,8776,1905.1c481.9-1004.9,543.6-2094.3,182.7-3158.6c-217-637.2-573.3-1187.6-1082.6-1674.1C7236.7-3537.5,6425.9-3923.5,5542-4040c-1786-235.2-3526.3,712.6-4309.7,2341C917.1-1045.7,784.6-344.6,832.6,402.3c125.6,1941.3,1605.6,3544.6,3556,3846.1C4669.6,4294,5302.2,4294,5601.4,4248.4z"/><path d="M2897.3,2441.8c-173.6-91.4-262.6-235.2-262.6-429.4c0-70.8,16-159.9,36.5-201c20.6-41.1,402-440.8,849.6-888.4l815.4-817.6L3520.8-710c-447.6-449.9-829.1-849.6-849.6-890.7c-79.9-159.9-29.7-422.5,105.1-548.1c125.6-116.5,349.4-155.3,516.2-86.8c57.1,25.1,351.7,303.8,902.1,851.9l815.4,815.4l817.6-815.4c548.1-548.1,842.8-826.8,899.9-851.9c294.6-121,628.1,75.4,653.2,386c18.3,235.2,25.1,226.1-870.2,1128.2l-824.5,826.8l801.6,806.2c513.9,513.9,819.9,838.2,849.6,899.9c143.9,287.8-50.3,637.2-372.3,664.6c-235.2,18.3-226.1,25.1-1126-870.2l-829-826.8l-815.4,815.4c-550.4,548.1-845,826.8-902.1,851.9C3182.7,2489.8,2986.3,2489.8,2897.3,2441.8z"/></g></g>
</svg>