<?xml version="1.0" encoding="utf-8"?>
<!-- Svg Vector Icons : http://www.onlinewebfonts.com/icon -->
<!DOCTYPE svg PUBLIC "-//W3C//DTD SVG 1.1//EN" "http://www.w3.org/Graphics/SVG/1.1/DTD/svg11.dtd">
<svg version="1.1" xmlns="http://www.w3.org/2000/svg" xmlns:xlink="http://www.w3.org/1999/xlink" x="0px" y="0px" viewBox="0 0 1000 1000" enable-background="new 0 0 1000 1000" xml:space="preserve">
<metadata> Svg Vector Icons : http://www.onlinewebfonts.com/icon </metadata>
<g><path d="M61,851.9c-11.3,0-20.9-9-21.8-20.4c4.7-64.7,20.2-126.7,46-184.3c25.3-56.5,60-108,103.4-153c43.4-45.1,94.5-82.8,151.9-112.3c58.6-30,122.9-50.8,191.2-61.9V181.5c0-18.4,15-33.4,33.4-33.4c7.9,0,15.4,2.8,21.6,8.1L950,470c7,6.5,10.8,15.3,10.8,24.5c0,9.7-4.2,18.9-11.5,25.3v0.1l-0.2,0.1L585.8,833.9c-6.2,5-13.4,7.6-20.7,7.6c-18.4,0-33.4-15-33.4-33.4V679.9c-32.8,3.4-65.4,8-96.9,13.8l-0.2-1c31.8-5.8,64.6-10.5,97.6-13.9l0.5-0.1V808c0,17.9,14.6,32.5,32.4,32.5c7.2,0,14.1-2.5,20.1-7.3l363.2-313.6l0-0.2l0.2-0.1c7.2-6.2,11.3-15.1,11.3-24.7c0-9-3.7-17.5-10.5-23.8L586,156.9c-6.1-5.2-13.3-7.9-21-7.9c-17.9,0-32.5,14.6-32.5,32.4v139.3l-0.4,0.1c-68.3,11-132.6,31.8-191.3,61.9c-57.3,29.4-108.4,67.1-151.6,112.1c-43.2,44.9-77.9,96.3-103.2,152.7C60.3,705.2,44.9,767,40.2,831.5c0.9,10.9,10,19.4,20.8,19.4c4.1,0,8.2-1.2,11.6-3.5l0.2-0.1l0.2,0.1c43.8-31.1,85.8-57.5,121.5-76.3c24.9-13.7,54.1-26.6,86.9-38.2l0.3,0.9c-32.7,11.6-61.9,24.5-86.7,38.1c-35.7,18.9-77.8,45.3-121.8,76.5l-0.1,0.1H73c0,0-0.1,0-0.2,0C69.2,850.8,65.2,851.9,61,851.9z"/><path d="M61,881.1c-13,0-25.4-4.9-34.9-13.9c-9.2-8.7-14.9-20.6-15.9-33.3l-0.2-2.3l0.2-2.3c4.9-68,21.2-133.3,48.4-194c26.7-59.6,63.3-113.9,109-161.3c45.6-47.4,99.3-87.1,159.6-118c54.3-27.8,113.1-48,175.3-60.3V181.5c0-34.5,28.1-62.6,62.6-62.6c14.7,0,29.1,5.3,40.5,15.1l0.2,0.1l363.8,314.2l0.4,0.4c12.7,11.9,20,28.6,20,45.8c0,13.1-4.1,25.7-11.5,36.2v2.6L604,856.7c-11.4,9.1-24.9,14-39,14c-34.5,0-62.6-28.1-62.6-62.6v-95.4c-21.1,2.7-42.1,6-62.5,9.8l-10.7-58.3c32.5-6,66.1-10.8,99.9-14.2l32.7-3.4V808c0,1.9,1.4,3.3,3.3,3.3c0.5,0,1.2-0.4,1.6-0.7L920,505.5l0.3-5.2l10.3-4.9c0.1-0.3,0.1-0.6,0.1-0.9c0-1-0.5-1.8-1-2.3L567.1,179.1c-0.7-0.6-1.4-0.9-2.1-0.9c-1.9,0-3.3,1.5-3.3,3.3v164.1l-24.9,4C407.1,370.6,294.2,427.8,210.3,515C131.6,596.8,83.7,699.5,71.2,813.1c39.4-27.3,77-50.5,109.6-67.7c26.2-14.4,56.8-27.9,90.9-40l19.9,55.8c-31.2,11.1-58.9,23.3-82.4,36.2l-0.5,0.2c-24.1,12.7-64.3,36-118.5,74.5l-7.7,5.5h-3.1C73.5,879.9,67.4,881.1,61,881.1z"/><path d="M441.5,723.2"/><path d="M287.4,758.6"/></g>
</svg>